<svg xmlns="http://www.w3.org/2000/svg" width="700" height="420" viewBox="0 0 700 420"><rect x="290" y="20" width="120" height="30" rx="15" ry="15" fill="#d0e8ff" stroke="#333" stroke-width="1.5"/><text x="350" y="35.0" font-size="12" text-anchor="middle" font-family="Arial" fill="#111"><tspan x="350" dy="0">Inicio</tspan></text>
    <defs>
      <marker id="arrow" markerWidth="10" markerHeight="7" refX="10" refY="3.5" orient="auto">
        <polygon points="0 0, 10 3.5, 0 7" fill="#333"/>
      </marker>
    </defs>
    <line x1="350" y1="50" x2="350" y2="90" stroke="#333" stroke-width="1.5" marker-end="url(#arrow)"/>
    <polygon points="150,90 570,90 550,140 130,140" fill="#e0e5eb" stroke="#333" stroke-width="1.5"/><text x="350" y="115.0" font-size="12" text-anchor="middle" font-family="Arial" fill="#111"><tspan x="350" dy="0">Leer NUM1, NUM2</tspan></text>
    <defs>
      <marker id="arrow" markerWidth="10" markerHeight="7" refX="10" refY="3.5" orient="auto">
        <polygon points="0 0, 10 3.5, 0 7" fill="#333"/>
      </marker>
    </defs>
    <line x1="350" y1="140" x2="350" y2="210" stroke="#333" stroke-width="1.5" marker-end="url(#arrow)"/>
    <polygon points="350,160.0 460.0,210 350,260.0 240.0,210" fill="#fffbe6" stroke="#333" stroke-width="1.5"/><text x="350" y="210.0" font-size="12" text-anchor="middle" font-family="Arial" fill="#111"><tspan x="350" dy="0">NUM1 = 0?</tspan></text>
    <defs>
      <marker id="arrow" markerWidth="10" markerHeight="7" refX="10" refY="3.5" orient="auto">
        <polygon points="0 0, 10 3.5, 0 7" fill="#333"/>
      </marker>
    </defs>
    <line x1="240" y1="210" x2="120" y2="210" stroke="#333" stroke-width="1.5" marker-end="url(#arrow)"/>
    <polygon points="20,185 240,185 220,235 0,235" fill="#e8f7ff" stroke="#333" stroke-width="1.5"/><text x="120" y="210.0" font-size="12" text-anchor="middle" font-family="Arial" fill="#111"><tspan x="120" dy="0">Imprimir "Indefinido"</tspan></text>
    <defs>
      <marker id="arrow" markerWidth="10" markerHeight="7" refX="10" refY="3.5" orient="auto">
        <polygon points="0 0, 10 3.5, 0 7" fill="#333"/>
      </marker>
    </defs>
    <line x1="350" y1="260" x2="350" y2="320" stroke="#333" stroke-width="1.5" marker-end="url(#arrow)"/>
    <polygon points="350,270.0 460.0,320 350,370.0 240.0,320" fill="#fffbe6" stroke="#333" stroke-width="1.5"/><text x="350" y="320.0" font-size="12" text-anchor="middle" font-family="Arial" fill="#111"><tspan x="350" dy="0">NUM2 MOD NUM1 = 0?</tspan></text>
    <defs>
      <marker id="arrow" markerWidth="10" markerHeight="7" refX="10" refY="3.5" orient="auto">
        <polygon points="0 0, 10 3.5, 0 7" fill="#333"/>
      </marker>
    </defs>
    <line x1="240" y1="320" x2="120" y2="320" stroke="#333" stroke-width="1.5" marker-end="url(#arrow)"/>
    <polygon points="20,295 240,295 220,345 0,345" fill="#e8f7ff" stroke="#333" stroke-width="1.5"/><text x="120" y="320.0" font-size="12" text-anchor="middle" font-family="Arial" fill="#111"><tspan x="120" dy="0">"Sí es divisor"</tspan></text>
    <defs>
      <marker id="arrow" markerWidth="10" markerHeight="7" refX="10" refY="3.5" orient="auto">
        <polygon points="0 0, 10 3.5, 0 7" fill="#333"/>
      </marker>
    </defs>
    <line x1="460" y1="320" x2="580" y2="320" stroke="#333" stroke-width="1.5" marker-end="url(#arrow)"/>
    <polygon points="480,295 700,295 680,345 460,345" fill="#e8f7ff" stroke="#333" stroke-width="1.5"/><text x="580" y="320.0" font-size="12" text-anchor="middle" font-family="Arial" fill="#111"><tspan x="580" dy="0">"No es divisor"</tspan></text></svg>